<svg width="39" height="39" viewBox="0 0 39 39" fill="none" xmlns="http://www.w3.org/2000/svg">
<g clip-path="url(#clip0_600_328)">
<path d="M38.51 19.25C38.51 19.46 38.51 19.67 38.49 19.88C38.34 24.92 36.2 29.5 32.85 32.85C29.5 36.2 24.55 38.5 19.25 38.5C19.04 38.5 18.83 38.5 18.62 38.48C8.33 38.15 0 29.63 0 19.25C0 13.96 2.17 9.14 5.66 5.65C9.15 2.16 13.96 0 19.25 0C24.54 0 29.36 2.16 32.85 5.65C36.34 9.14 38.51 13.96 38.51 19.25Z" fill="url(#paint0_linear_600_328)"/>
<path d="M38.4902 19.88C38.3402 24.92 36.2002 29.5 32.8502 32.85C29.5002 36.2 24.5502 38.5 19.2502 38.5H18.6402L18.6202 38.48C15.9802 35.84 13.3902 33.25 10.7202 30.59C12.0602 31.49 13.6702 32.01 15.4102 32.01C20.0702 32.01 23.8402 28.24 23.8402 23.59V14.29C25.6302 15.56 27.8202 16.32 30.1902 16.32V12.73C30.6302 12.82 31.0802 12.87 31.5302 12.87C33.7802 15.26 36.1802 17.53 38.4902 19.88Z" fill="url(#paint1_linear_600_328)"/>
<g style="mix-blend-mode:multiply">
<path d="M38.4902 19.88C38.3402 24.92 36.2002 29.5 32.8502 32.85C29.5002 36.2 24.5502 38.5 19.2502 38.5H18.6402L18.6202 38.48C15.9802 35.84 13.3902 33.25 10.7202 30.59C12.0602 31.49 13.6702 32.01 15.4102 32.01C20.0702 32.01 23.8402 28.24 23.8402 23.59V14.29C25.6302 15.56 27.8202 16.32 30.1902 16.32V12.73C30.6302 12.82 31.0802 12.87 31.5302 12.87C33.7802 15.26 36.1802 17.53 38.4902 19.88Z" fill="#FF1753"/>
</g>
<path opacity="0.8" fill-rule="evenodd" clip-rule="evenodd" d="M26.82 10.8C25.9 9.80001 25.3 8.51001 25.17 7.08001V6.49001H23.91C24.23 8.30001 25.31 9.86001 26.82 10.8ZM13.66 27.02C13.15 26.35 12.87 25.53 12.87 24.69C12.87 22.56 14.6 20.84 16.73 20.84C17.13 20.84 17.52 20.9 17.9 21.02V16.36C17.46 16.3 17.01 16.27 16.57 16.28V19.91C16.19 19.79 15.8 19.73 15.4 19.73C13.27 19.73 11.54 21.46 11.54 23.58C11.54 25.08 12.4 26.39 13.66 27.02Z" fill="#FF1753"/>
<path fill-rule="evenodd" clip-rule="evenodd" d="M23.8398 14.29C25.6298 15.57 27.8298 16.32 30.1898 16.32V12.73C28.8698 12.45 27.6998 11.76 26.8198 10.8C25.3098 9.86001 24.2298 8.31001 23.9098 6.49001H20.5898V24.69C20.5898 26.81 18.8598 28.53 16.7298 28.53C15.4798 28.53 14.3698 27.93 13.6598 27.01C12.3998 26.38 11.5398 25.07 11.5398 23.57C11.5398 21.44 13.2698 19.72 15.3998 19.72C15.8098 19.72 16.1998 19.78 16.5698 19.9V16.27C11.9998 16.36 8.31982 20.1 8.31982 24.69C8.31982 26.98 9.23982 29.06 10.7198 30.58C12.0598 31.48 13.6798 32 15.4098 32C20.0598 32 23.8398 28.23 23.8398 23.58V14.28V14.29Z" fill="white"/>
<path fill-rule="evenodd" clip-rule="evenodd" d="M30.19 12.73V11.76C29 11.76 27.83 11.43 26.82 10.8C27.72 11.78 28.9 12.46 30.19 12.73ZM23.91 6.49C23.88 6.32 23.86 6.14 23.84 5.97V5.38H19.25V23.58C19.25 25.7 17.52 27.42 15.39 27.42C14.77 27.42 14.18 27.27 13.66 27.01C14.36 27.93 15.48 28.53 16.73 28.53C18.85 28.53 20.58 26.81 20.59 24.69V6.49H23.91ZM16.57 16.27V15.24C16.19 15.19 15.8 15.16 15.41 15.16C10.75 15.16 6.97998 18.93 6.97998 23.58C6.97998 26.5 8.45998 29.07 10.72 30.58C9.22998 29.06 8.31998 26.98 8.31998 24.69C8.31998 20.1 12 16.36 16.57 16.27Z" fill="#00C9D0"/>
<path opacity="0.8" fill-rule="evenodd" clip-rule="evenodd" d="M25.1702 15.39C26.9602 16.67 29.1602 17.42 31.5202 17.42V12.86C31.0702 12.86 30.6202 12.81 30.1902 12.72V16.31C27.8202 16.31 25.6302 15.56 23.8402 14.28V23.58C23.8402 28.23 20.0702 32 15.4102 32C13.6702 32 12.0602 31.48 10.7202 30.58C12.2502 32.14 14.3802 33.11 16.7502 33.11C21.4102 33.11 25.1802 29.34 25.1802 24.69V15.39H25.1702Z" fill="#FF1753"/>
</g>
<defs>
<linearGradient id="paint0_linear_600_328" x1="6.89" y1="4.52" x2="31.62" y2="33.98" gradientUnits="userSpaceOnUse">
<stop stop-color="#323232"/>
<stop offset="1"/>
</linearGradient>
<linearGradient id="paint1_linear_600_328" x1="6.87021" y1="4.10001" x2="31.8102" y2="33.82" gradientUnits="userSpaceOnUse">
<stop stop-color="#646464"/>
<stop offset="0.43" stop-color="#1D1D1D"/>
<stop offset="0.6"/>
</linearGradient>
<clipPath id="clip0_600_328">
<rect width="38.51" height="38.5" fill="white"/>
</clipPath>
</defs>
</svg>
