<svg width="40" height="40" viewBox="0 0 40 40" fill="none" xmlns="http://www.w3.org/2000/svg">
<path d="M40 20.0007C40 30.102 32.5124 38.4529 22.7853 39.808C21.8758 39.9341 20.9452 40 20.0007 40C18.9104 40 17.8398 39.9131 16.7971 39.7449C7.27324 38.2118 0 29.9548 0 20.0007C0 8.95491 8.95491 0 19.9993 0C31.0437 0 40 8.95491 40 20.0007Z" fill="#1877F2"/>
<path d="M22.7851 16.0585V20.4155H28.1748L27.3214 26.2845H22.7851V39.8066C21.8756 39.9327 20.945 39.9986 20.0005 39.9986C18.9102 39.9986 17.8396 39.9117 16.7969 39.7435V26.2845H11.8262V20.4155H16.7969V15.0846C16.7969 11.7773 19.4778 9.095 22.7865 9.095V9.0978C22.7963 9.0978 22.8047 9.095 22.8145 9.095H28.1762V14.1709H24.6728C23.6315 14.1709 22.7865 15.0159 22.7865 16.0571L22.7851 16.0585Z" fill="white"/>
</svg>
