<svg width="40" height="40" viewBox="0 0 40 40" fill="none" xmlns="http://www.w3.org/2000/svg">
<path d="M20.0455 0H19.9545C8.93393 0 0 8.93392 0 19.9545V20.0455C0 31.0661 8.93393 40 19.9545 40H20.0455C31.0661 40 40 31.0661 40 20.0455V19.9545C40 8.93392 31.0661 0 20.0455 0Z" fill="#007EBB"/>
<path d="M9.53946 13.2964C9.01253 12.8073 8.75049 12.2019 8.75049 11.4816C8.75049 10.7613 9.01393 10.1293 9.53946 9.63878C10.0664 9.14969 10.7447 8.90445 11.5757 8.90445C12.4067 8.90445 13.0584 9.14969 13.5839 9.63878C14.1108 10.1279 14.3729 10.7431 14.3729 11.4816C14.3729 12.2201 14.1094 12.8073 13.5839 13.2964C13.057 13.7855 12.3885 14.0307 11.5757 14.0307C10.7629 14.0307 10.0664 13.7855 9.53946 13.2964ZM13.93 16.102V31.0969H9.19191V16.102H13.93Z" fill="#FEFFFC"/>
<path d="M29.7028 17.5833C30.7356 18.7044 31.2513 20.2432 31.2513 22.2023V30.8321H26.7515V22.8105C26.7515 21.8225 26.495 21.0546 25.9835 20.508C25.472 19.9615 24.7825 19.6868 23.9193 19.6868C23.056 19.6868 22.3665 19.9601 21.855 20.508C21.3435 21.0546 21.087 21.8225 21.087 22.8105V30.8321H16.5605V16.06H21.087V18.0192C21.5453 17.3661 22.1633 16.8504 22.9397 16.4706C23.7161 16.0908 24.5891 15.9016 25.5603 15.9016C27.2896 15.9016 28.6714 16.4622 29.7028 17.5833Z" fill="#FEFFFC"/>
</svg>
