<svg width="40" height="40" viewBox="0 0 40 40" fill="none" xmlns="http://www.w3.org/2000/svg">
<path d="M20.0455 0H19.9544C8.9339 0 0 8.93391 0 19.9545V20.0455C0 31.0661 8.9339 40 19.9544 40H20.0455C31.0661 40 40 31.0661 40 20.0455V19.9545C40 8.93391 31.0661 0 20.0455 0Z" fill="url(#paint0_linear_314_253)"/>
<g clip-path="url(#clip0_314_253)">
<path d="M8.63037 20.9309V19.0692C8.70327 19.0692 8.66962 18.9795 8.67523 18.929C8.73423 18.3264 8.83542 17.7286 8.97803 17.1402C9.55308 14.839 10.8034 12.7625 12.5681 11.1776C14.3328 9.59276 16.5313 8.57205 18.8808 8.24674C19.111 8.24465 19.3396 8.20876 19.5593 8.1402H21.2977C21.2977 8.18506 21.3481 8.17384 21.3818 8.17945C21.8791 8.21101 22.3737 8.27658 22.8621 8.37571C25.265 8.87035 27.4559 10.0962 29.1345 11.8853C30.8131 13.6743 31.8971 15.9388 32.2378 18.3682C32.2469 18.6184 32.2845 18.8668 32.35 19.1084V20.9309C32.3164 20.9309 32.3107 20.9645 32.3107 20.9925C32.3107 21.2505 32.2603 21.514 32.221 21.772C31.8193 24.4901 30.4757 26.9808 28.4248 28.8094C26.6745 30.4114 24.4743 31.4371 22.122 31.7477C21.8591 31.7599 21.5981 31.7974 21.3425 31.8598H19.5593C19.5593 31.7981 19.4808 31.8206 19.4416 31.815C18.636 31.7423 17.8396 31.5901 17.064 31.3608C14.8929 30.7027 12.9556 29.4368 11.481 27.7128C10.0063 25.9888 9.0561 23.8787 8.74252 21.6318C8.73904 21.394 8.70127 21.1579 8.63037 20.9309ZM11.9949 20.5271H9.84719C9.72383 20.5271 9.69018 20.5552 9.69579 20.6841C9.69579 21.0542 9.76308 21.4187 9.82476 21.8056C10.17 23.8557 11.1009 25.7623 12.5051 27.2953C12.5836 27.3851 12.6285 27.4019 12.7238 27.2953C13.3913 26.7077 14.1275 26.2031 14.9164 25.7925C14.938 25.7859 14.958 25.7747 14.9749 25.7596C14.9918 25.7445 15.0053 25.7259 15.0144 25.7051C15.0234 25.6844 15.0279 25.6619 15.0274 25.6392C15.0269 25.6165 15.0216 25.5942 15.0117 25.5738C14.5717 23.9817 14.3306 22.3412 14.2939 20.6897C14.2939 20.5495 14.2378 20.5271 14.1145 20.5271C13.4248 20.5327 12.7182 20.5271 12.0117 20.5271H11.9949ZM28.9575 20.5271H26.8547C26.7089 20.5271 26.664 20.5552 26.6584 20.7066C26.6185 22.3444 26.3794 23.9713 25.9463 25.5514C25.9345 25.5746 25.9282 25.6002 25.9277 25.6262C25.9271 25.6522 25.9324 25.678 25.9432 25.7017C25.954 25.7253 25.9699 25.7463 25.9898 25.763C26.0098 25.7797 26.0332 25.7917 26.0584 25.7981C26.8264 26.2035 27.5435 26.6986 28.1949 27.2729C28.307 27.3738 28.3631 27.3795 28.464 27.2729C30.1071 25.4773 31.0951 23.1792 31.2678 20.7514C31.2678 20.5552 31.2229 20.5383 31.0547 20.5383C30.3593 20.5327 29.6696 20.5271 28.9743 20.5271H28.9575ZM12.0117 19.4729H14.0921C14.2547 19.4729 14.3051 19.4449 14.3107 19.271C14.3275 18.5508 14.3837 17.8319 14.479 17.1178C14.6036 16.2161 14.7909 15.3242 15.0397 14.4486C15.0397 14.3645 15.0734 14.3028 14.9724 14.2523C14.166 13.825 13.4131 13.3036 12.7294 12.6991C12.6621 12.6374 12.6285 12.643 12.5724 12.6991C12.5164 12.7552 12.3481 12.9458 12.2416 13.0804C10.7567 14.8304 9.8705 17.0094 9.71261 19.2991C9.71261 19.4449 9.74626 19.4729 9.88645 19.4729C10.593 19.4673 11.2939 19.4729 12.0117 19.4729ZM28.9743 19.4729H31.0995C31.2397 19.4729 31.2734 19.4393 31.2678 19.2935C31.2378 18.851 31.1797 18.4108 31.0939 17.9757C30.7263 16.0255 29.8235 14.2161 28.4864 12.7495C28.3911 12.643 28.3463 12.6486 28.2397 12.7495C27.5766 13.3333 26.8462 13.8359 26.064 14.2467C26.0412 14.2546 26.0204 14.2672 26.0029 14.2837C25.9854 14.3003 25.9717 14.3204 25.9626 14.3428C25.9536 14.3651 25.9495 14.3891 25.9505 14.4132C25.9516 14.4372 25.9578 14.4608 25.9687 14.4823C26.3949 16.0501 26.6302 17.6636 26.6696 19.2879C26.6696 19.4337 26.7089 19.4897 26.8715 19.4841C27.5556 19.4673 28.2734 19.4729 28.9743 19.4729ZM23.3276 20.5271H21.2079C21.0509 20.5271 21.0173 20.5664 21.0173 20.7178V24.2337C21.0173 24.3907 21.0621 24.4243 21.2023 24.4299C22.4424 24.5029 23.6631 24.7717 24.8192 25.2262C24.9481 25.2766 24.9593 25.2262 24.9874 25.1252C25.3658 23.6585 25.5765 22.1535 25.6154 20.6393C25.6154 20.4879 25.5425 20.5103 25.4528 20.5103L23.3276 20.5271ZM17.6752 20.5271H15.55C15.4042 20.5271 15.3537 20.5271 15.365 20.7122C15.4042 21.0766 15.4042 21.4411 15.4322 21.8C15.5189 22.9359 15.7065 24.0619 15.993 25.1645C15.993 25.2654 16.0435 25.2935 16.1556 25.2486C17.3157 24.7882 18.5429 24.5193 19.7892 24.4523C19.935 24.4523 19.9575 24.3963 19.9575 24.2617V20.7402C19.9575 20.572 19.9014 20.5495 19.7556 20.5495C19.0659 20.5327 18.3706 20.5271 17.6752 20.5271ZM17.6416 19.4729H19.7668C19.9126 19.4729 19.9631 19.4449 19.9575 19.2879V15.7888C19.9575 15.6318 19.907 15.5981 19.7668 15.5925C18.569 15.5297 17.3884 15.2799 16.2678 14.8523C16.021 14.7626 16.021 14.7626 15.9593 15.0037C15.6051 16.4172 15.4057 17.8649 15.365 19.3215C15.365 19.4505 15.3986 19.4729 15.522 19.4729C16.2285 19.4673 16.935 19.4729 17.6416 19.4729ZM23.3051 19.4729H25.4472C25.5818 19.4729 25.6098 19.4337 25.6098 19.3047C25.6098 18.671 25.5425 18.0374 25.464 17.4094C25.3637 16.5601 25.2044 15.7188 24.9874 14.8916C24.9593 14.8019 24.9481 14.757 24.8304 14.8019C23.6637 15.2609 22.4315 15.5316 21.1799 15.6037C21.0453 15.6037 21.0173 15.6598 21.0173 15.7832V19.2991C21.0173 19.4561 21.0734 19.4729 21.2023 19.4673C21.9033 19.4673 22.6042 19.4729 23.3051 19.4729ZM19.9407 11.9589V9.59253C19.9407 9.36263 19.9407 9.35702 19.7107 9.43552C19.1046 9.64648 18.5662 10.0164 18.1519 10.5066C17.3709 11.4173 16.7731 12.4702 16.3911 13.6075C16.3463 13.7252 16.3911 13.7477 16.4808 13.7813C17.5269 14.1918 18.6291 14.4414 19.75 14.5215C19.9126 14.5215 19.9687 14.5215 19.9631 14.3252C19.9519 13.5458 19.9575 12.7552 19.9575 11.9589H19.9407ZM21.0061 11.9589V14.3252C21.0061 14.5215 21.0678 14.5664 21.2416 14.5383C21.4154 14.5103 21.522 14.5103 21.6621 14.4935C22.624 14.3872 23.5671 14.1514 24.4659 13.7925C24.55 13.7645 24.5949 13.7365 24.55 13.6243C24.2025 12.5827 23.6832 11.6066 23.0135 10.7365C22.5601 10.1343 21.9402 9.67809 21.2304 9.42431C21.0734 9.37384 21.0117 9.37945 21.0173 9.57571C21.0285 10.372 21.0229 11.1626 21.0229 11.9589H21.0061ZM19.9407 30.615V25.6075C19.9407 25.5009 19.8958 25.4897 19.8061 25.4953C18.6514 25.5585 17.5148 25.8104 16.4416 26.2411C16.3631 26.2411 16.3294 26.2972 16.3631 26.3981C16.7012 27.3578 17.1813 28.2613 17.7874 29.0785C18.1954 29.65 18.7361 30.1137 19.3631 30.4299C19.5487 30.5263 19.75 30.589 19.9575 30.615H19.9407ZM21.0061 30.615C21.0282 30.6202 21.0512 30.6202 21.0734 30.615L21.2135 30.5813C21.8281 30.3688 22.3743 29.995 22.7949 29.4991C23.5774 28.5897 24.1789 27.5391 24.5668 26.4037C24.6117 26.2804 24.5668 26.2692 24.4715 26.2411C23.4243 25.828 22.3198 25.5783 21.1967 25.5009C21.0229 25.5009 21.0005 25.5458 21.0005 25.6972V29.8019L21.0061 30.615ZM17.4902 9.68225C16.0009 10.0963 14.622 10.8356 13.4528 11.8467C13.3743 11.914 13.4079 11.9421 13.4528 11.9925C14.0489 12.4914 14.6976 12.9239 15.3874 13.2823C15.6306 12.6229 15.9211 11.982 16.2565 11.3645C16.6064 10.7612 17.02 10.1972 17.4902 9.68225ZM23.4397 9.68225C23.5855 9.84487 23.7201 9.98506 23.8435 10.1365C24.5692 11.049 25.1377 12.0762 25.5257 13.1757C25.5762 13.3103 25.6098 13.3327 25.7388 13.2542C26.3534 12.9056 26.9352 12.5021 27.4771 12.0486C27.5893 11.9533 27.578 11.914 27.4771 11.8299C26.5156 11.0124 25.4188 10.3691 24.236 9.92898C23.9799 9.80651 23.7134 9.70706 23.4397 9.63179V9.68225ZM23.4678 30.4299C24.9924 30.0048 26.4 29.2377 27.5836 28.1869C27.0256 27.7013 26.4229 27.2695 25.7836 26.8972C25.621 26.8019 25.565 26.8299 25.4977 27.0037C25.0446 28.2424 24.3552 29.3813 23.4678 30.357V30.4299ZM17.4958 30.4299C17.3332 30.2337 17.1593 30.043 17.0079 29.8411C16.3503 28.9787 15.8301 28.0197 15.4659 26.9981C15.421 26.8804 15.3874 26.8299 15.2472 26.914C14.6464 27.2367 14.0743 27.6101 13.5369 28.0299C13.436 28.114 13.436 28.1533 13.5369 28.2374C13.9763 28.6025 14.441 28.9361 14.9276 29.2355C15.7234 29.7305 16.5892 30.1029 17.4958 30.3402V30.4299Z" fill="white" stroke="white" stroke-width="0.5"/>
</g>
<defs>
<linearGradient id="paint0_linear_314_253" x1="33.4902" y1="36" x2="11.4902" y2="8.71281e-07" gradientUnits="userSpaceOnUse">
<stop offset="0.485577" stop-color="#0A0A0A"/>
<stop offset="1" stop-color="#707070"/>
</linearGradient>
<clipPath id="clip0_314_253">
<rect width="24" height="24" fill="white" transform="translate(8.49023 8)"/>
</clipPath>
</defs>
</svg>
